#!OML:ASF F:\VICON\USERDATA\INSTALL\rory3\rory3.ASF
:FULLY-SPECIFIED
:DEGREES
145
root 0.9170493781550073 17.713673994703022 47.120003479470995 3.00112417512669 -1.7521953759883955 -0.49574865602082174
lfemur -9.614622248573458 -5.176273913323826 -27.268482672737534
ltibia 25.51809410342183
lfoot -14.070257817046233 6.881032297684904
ltoes -6.765386296443026
rfemur -41.782067219307066 -5.979491468293041 19.106646974455366
rtibia 138.37481650265835
rfoot 16.49531695575658 -5.06985109356126
rtoes 10.692369294530037
lowerback nan -1.1770487166360333 -1.9300684245843773
upperback -0.12930063648275836 -0.11181979698519884 -0.10502012931409954
thorax -7.452606048248464 -0.7862877436675414 2.902006937115574
lowerneck -20.46759410621288 -4.1472407098267166 -2.1819752280934384
upperneck 5.578141073305214 -5.647987948045887 7.264980434441814
head 6.720008677601757 -2.452462253761063 1.3377936837243216
lclavicle 1.6100569343291601e-15 1.2788360950941895e-14
lhumerus -34.37008871557082 -7.087922713243552 85.37458786364773
lradius 127.42008877075384
lwrist 32.4140692750645
lhand -29.341376358219108 1.573273954880768
lfingers nan
lthumb -2.5026860876406065 31.67461998623042
rclavicle 2.5770894323484077e-15 1.584007921371131e-14
rhumerus -61.11247322527628 8.40491293585459 -99.14451369585089
rradius 91.29989345095152
rwrist -22.45542342533607
rhand -19.42743886385182 nan
rfingers nan
rthumb 7.069050446266395 14.020527142345731
146
root 0.9325543075200071 17.766155075281524 47.568789632921835 3.195832835670804 -1.8562318532676327 -0.36271736630059337
lfemur -7.455620569091984 -5.1774118992202585 -27.765078883624938
ltibia 24.241289586187328
lfoot -12.43542939489345 6.7788906849502055
ltoes -9.559494642708472
rfemur -43.01518420049173 -6.010737866172578 19.260393460558607
rtibia 136.79097491386898
rfoot 15.140673171775335 -5.207379925021975
rtoes 10.131156102560979
lowerback nan -1.374052423125125 -1.9668434067459413
upperback -0.1764133917446985 -0.376701829882059 -0.09175620289575859
thorax -7.412449033023285 -0.9011173439824355 2.9948029606929727
lowerneck -21.067473861998558 -3.967059381835951 -2.187505231408728
upperneck 6.32519718273203 -5.470219786717472 7.166784411097927
head 7.0515369658474825 -2.340388250282543 1.3279138160146402
lclavicle -5.518415641450003e-15 1.5899758796981903e-14
lhumerus -34.22546897746958 -6.580134553318426 84.90961595581769
lradius 128.75898170477473
lwrist 33.625836865540585
lhand -28.579070453564967 0.3228460897000929
lfingers nan
lthumb -1.784780387599745 30.40979822630765
rclavicle -4.295459120306662e-15 1.9010303181549435e-14
rhumerus -61.71352049961443 8.689286132194024 -98.99617450275416
rradius 92.55948939962781
rwrist -22.619972508717897
rhand -19.327505713499217 nan
rfingers nan
rthumb 7.158090138022887 14.050795058892597
147
root 0.9464163550659535 17.806231762814164 47.43537497481057 3.135375056841457 -1.648605010760507 0.11015629041056041
lfemur -4.981838168360358 -5.226231463383231 -28.52731075134993
ltibia 22.96904699541458
lfoot -10.183661085755558 6.001739435091306
ltoes -13.754839508940519
rfemur -44.01105830383529 -6.30275843674478 19.017124401403407
rtibia 134.77436553923005
rfoot 14.341593985480722 -5.104244464046763
rtoes 8.567971761025156
lowerback nan -1.5919002484413758 -2.143637929371488
upperback -0.32890459316642817 -0.7002604659191329 -0.11311102315013821
thorax -7.775102839719182 -1.021417197938828 3.0818403688219758
lowerneck -20.99218144825006 -3.7573728122332555 -2.1851568994597503
upperneck 6.658754516304853 -5.252926468842058 7.029617275096078
head 7.121541612212698 -2.2127207791954473 1.3203933029086716
lclavicle 1.5678077278496464e-15 8.663580509087801e-15
lhumerus -34.42037496461292 -6.195023905033986 84.52301798842467
lradius 130.13102184763594
lwrist 35.05582211772549
lhand -28.452027852760843 -0.26414430966285707
lfingers nan
lthumb -1.6415854145959126 29.826511810773038
rclavicle 2.5198398321950934e-15 1.1831963527614983e-14
rhumerus -62.57461134170532 8.775130002062316 -98.80143300953424
rradius 94.08121996944806
rwrist -22.73052358051115
rhand -18.931777635513782 nan
rfingers nan
rthumb 7.528581382413926 13.518566310347644
148
root 0.9483560008015546 17.832723512867254 47.39796121583855 3.152979585763046 -1.5870719805411868 0.16650156979125885
lfemur -2.911785711051426 -5.192979147805701 -28.641184942090923
ltibia 21.80916100104816
lfoot -7.802717291538947 4.341713102538289
ltoes -15.146225336901955
rfemur -44.85682821250041 -6.223877129462844 19.656372522973932
rtibia 132.1903359174146
rfoot 14.550424300912791 -5.134249015749596
rtoes 7.211160674801234
lowerback nan -1.7659491454013323 -2.1363161519054183
upperback -0.48666667244495326 -0.9414569203756724 0.05697292080975824
thorax -8.127610492636697 -1.1001316570909663 3.2016694806129844
lowerneck -20.971396210763743 -3.5733486325623414 -2.2515606194671323
upperneck 6.947501225062997 -5.010566267489938 6.854316608662397
head 7.181876374349041 -2.0879604705944557 1.3194170307336264
lclavicle 6.45706192812053e-15 3.6727634605709234e-15
lhumerus -34.82698669951239 -5.754694777804353 84.4813400689596
lradius 131.49072026121587
lwrist 36.20232147066963
lhand -28.43876099813988 -0.5852636348140989
lfingers nan
lthumb -1.6050029595840278 29.516875853328877
rclavicle 7.463244201992687e-15 6.992774100527584e-15
rhumerus -63.3761408036534 8.921716325196225 -98.35139267304363
rradius 95.30769306385943
rwrist -22.839800778309243
rhand -18.662642522633103 nan
rfingers nan
rthumb 7.772316149647555 13.261405566751087
149
root 0.9444630749888699 17.868848309515297 47.33849415385022 3.1610284412968586 -1.6740341761311641 0.24175502605230426
lfemur -1.1209258925514174 -4.976463327504032 -28.69247723307778
ltibia 20.688530875581407
lfoot -5.271267416764218 2.187917117200124
ltoes -15.211313837623834
rfemur -45.49058289532688 -5.965752649800747 20.228256328272117
rtibia 129.35797402142714
rfoot 13.869136319792986 -5.521383242644079
rtoes 5.840412997363929
lowerback nan -1.8661590313276886 -2.2821621056977883
upperback -0.4046150973601451 -1.1144375694253366 0.24012585367548755
thorax -7.821703821519433 -1.1347500209964712 3.3613033337265357
lowerneck -21.336554477861394 -3.4908343973001204 -2.3160912318178077
upperneck 7.094123018942275 -4.8848286212894205 6.688640297996009
head 7.278369826032601 -2.0221794818816043 1.3087722319135682
lclavicle 5.000820233796928e-15 7.536989253534503e-15
lhumerus -35.01359793803754 -5.395724486821626 84.52566173648964
lradius 132.65841888411845
lwrist 37.03569175893641
lhand -28.35912120072164 -0.469680029040044
lfingers nan
lthumb -1.5120585287687518 29.654921152095373
rclavicle 5.884056000468174e-15 1.0886215891412644e-14
rhumerus -63.61027414115313 9.108430301594066 -97.51862740231317
rradius 96.17795737197453
rwrist -23.299927619824597
rhand -18.570159108937972 nan
rfingers nan
rthumb 7.851437701768659 13.131943544346353
150
root 0.9517455828663027 17.91429305309123 47.54706228491966 3.148417472087914 -1.852859698043895 0.24050519054475838
lfemur 0.5850786315210428 -4.367731690187476 -28.557493306700753
ltibia 19.570309235713154
lfoot -2.360065092906545 -0.09412220943064753
ltoes -20.613895076738626
rfemur -45.9190836528369 -5.613161177977435 20.85778056873914
rtibia 126.24597130387066
rfoot 12.889049659215688 -6.005953565531506
rtoes 6.982479672814982
lowerback nan -1.9154378786926913 -2.200334161331336
upperback -0.3846409534791365 -1.1997825253721508 0.31566239774388016
thorax -7.632272356096918 -1.1447516731731415 3.431023944997945
lowerneck -21.10997522761815 -3.50761070565707 -2.4252046367476874
upperneck 6.9358282336319865 -4.963088651961621 6.8377129657233
head 7.205122701163886 -2.012316792760967 1.372170152725438
lclavicle 3.30463086801619e-14 1.4165361893684976e-14
lhumerus -35.46656872983436 -5.255785434947354 84.39092307445739
lradius 133.439899928676
lwrist 37.43432990518406
lhand -27.89826376148627 -1.1827850410502796
lfingers nan
lthumb -1.03571144910956 28.967759681624706
rclavicle 3.365345076133532e-14 1.7585738221496275e-14
rhumerus -63.91927939042671 8.85549235025401 -96.8879583995661
rradius 96.76760243793798
rwrist -23.638092039333173
rhand -18.62474318245145 nan
rfingers nan
rthumb 7.788034437398814 13.224876614418573
151
root 0.9637941440442814 17.978248170029307 47.459722007682814 3.3457048085290584 -2.2165181268203704 -0.12063119956349411
lfemur 2.508318024790732 -4.202636890374584 -28.126313450978436
ltibia 18.35880881804698
lfoot 0.8946680236419122 -2.9423334151635947
ltoes -24.07762203529095
rfemur -46.11285948083527 -5.073364941847164 21.801596208403154
rtibia 122.39033008620093
rfoot 11.975384449104125 -6.442039626720318
rtoes 8.332478483621335
lowerback nan -1.913111733193681 -1.7865307023924535
upperback -0.5547791864511045 -1.1642788711055039 0.40030588216182805
thorax -7.572688659730231 -1.1071675914895516 3.3787160202331505
lowerneck -19.822219213507644 -3.4475391517434404 -2.5065481342984053
upperneck 6.168605633020663 -4.941456378386126 6.962781764160752
head 6.745162499708272 -1.9585622567188852 1.4357383926708527
lclavicle 2.2991034350325064e-14 2.030092979575186e-15
lhumerus -36.30867967269888 -5.321462172518769 84.49672405268063
lradius 133.92498377857007
lwrist 37.21797868946155
lhand -27.733592510221957 -3.0005308944180786
lfingers nan
lthumb -0.874293838594385 27.132912669861362
rclavicle 2.371890837177487e-14 5.534021283524319e-15
rhumerus -64.68607136683254 8.068092931715066 -96.27564179911785
rradius 97.53478789884234
rwrist -23.70063251331772
rhand -18.284638456486014 nan
rfingers nan
rthumb 8.099174770772802 13.377783570054174
152
root 0.9888801261492896 18.04621500427801 47.3124529961046 3.3729698886791875 -2.4396940518071495 -0.5099795528022348
lfemur 4.2579306858047765 -3.638078315534363 -27.600699689874702
ltibia 17.12665907388851
lfoot 4.715746240712852 -6.277682460962739
ltoes -24.27725495721904
rfemur -46.057019683871246 -4.713196466007441 22.751273002773544
rtibia 118.13885019201737
rfoot 10.938836383701688 -6.810368349299739
rtoes 9.118845311103254
lowerback nan -2.0394167417827624 -1.2916296023967075
upperback -0.4644690606226561 -1.2425642606750065 0.4832844579628668
thorax -7.358014144321597 -1.1401301366863965 3.351930743770925
lowerneck -20.808803350141666 -3.290333422101586 -2.2795454742792027
upperneck 6.933259289281137 -4.745757504387387 6.549877008674088
head 7.094173717986695 -1.8679484251987715 1.3209316851401913
lclavicle -2.6433632662207914e-14 2.6875106094145742e-14
lhumerus -36.42879409705193 -5.301714663596807 83.99341992338384
lradius 133.95806336482613
lwrist 36.754234915726656
lhand -27.393980083569932 -4.281772104101622
lfingers nan
lthumb -0.5400704889282315 25.796094359515088
rclavicle -2.5490220083826794e-14 2.970300463973616e-14
rhumerus -64.98473890206836 7.47332922454788 -95.51573583429801
rradius 98.41988707715862
rwrist -23.497451703570153
rhand -18.127722915881186 nan
rfingers nan
rthumb 8.228668868948697 13.18110080800406
